<?xml version="1.0" encoding="utf-8"?><!DOCTYPE svg PUBLIC "-//W3C//DTD SVG 1.1//EN" "http://www.w3.org/Graphics/SVG/1.1/DTD/svg11.dtd"><svg width="46" height="1233" viewBox="0 0 46 1233" xmlns="http://www.w3.org/2000/svg" xmlns:xlink="http://www.w3.org/1999/xlink"><svg width="43" height="39" fill="none" viewBox="-5 -5 43 39" id="icons--telegram-white-1" xmlns="http://www.w3.org/2000/svg"><path d="M1.348 14.121l7.247 2.724 2.804 9.087a.85.85 0 0 0 1.355.41l4.04-3.316a1.198 1.198 0 0 1 1.468-.042l7.286 5.329a.852.852 0 0 0 1.338-.52l5.337-25.86c.137-.668-.514-1.224-1.144-.978L1.339 12.51c-.733.286-.727 1.332.01 1.61zm9.6 1.274L25.108 6.61c.255-.158.517.189.298.393L13.72 17.946c-.411.386-.676.901-.751 1.46l-.398 2.973c-.053.397-.607.436-.715.052l-1.532-5.42a1.441 1.441 0 0 1 .623-1.616z" fill="#fff"/></svg><svg width="43" height="39" fill="none" viewBox="-5 -5 43 39" id="icons--telegram-grey-2" y="39" xmlns="http://www.w3.org/2000/svg"><path d="M1.348 14.121l7.247 2.724 2.804 9.087a.85.85 0 0 0 1.355.41l4.04-3.316a1.198 1.198 0 0 1 1.468-.042l7.286 5.329a.852.852 0 0 0 1.338-.52l5.337-25.86c.137-.668-.514-1.224-1.144-.978L1.339 12.51c-.733.286-.727 1.332.01 1.61zm9.6 1.274L25.108 6.61c.255-.158.517.189.298.393L13.72 17.946c-.411.386-.676.901-.751 1.46l-.398 2.973c-.053.397-.607.436-.715.052l-1.532-5.42a1.441 1.441 0 0 1 .623-1.616z" fill="#4D6875"/></svg><svg width="43" height="39" viewBox="-5 -5 43 39" id="icons--telegram-color-3" y="78" xmlns="http://www.w3.org/2000/svg"><path fill="#2EA5D8" d="M1.348 14.121l7.247 2.725 2.804 9.086a.85.85 0 0 0 1.355.41l4.04-3.316a1.198 1.198 0 0 1 1.468-.041l7.286 5.328a.85.85 0 0 0 1.338-.52l5.336-25.86c.137-.668-.514-1.224-1.144-.978L1.339 12.51c-.733.286-.727 1.332.009 1.611zm9.6 1.274L25.107 6.61c.256-.158.518.189.299.393L13.72 17.945a2.454 2.454 0 0 0-.751 1.461l-.398 2.973c-.053.396-.607.436-.715.053l-1.532-5.42a1.442 1.442 0 0 1 .623-1.617h.001z"/></svg><svg width="41" height="37" fill="none" viewBox="-5 -5 41 37" id="icons--wechat-white-4" y="117" xmlns="http://www.w3.org/2000/svg"><path d="M21.357 8.846c-2.798.148-5.23 1.005-7.206 2.942-1.995 1.958-2.906 4.355-2.658 7.327-1.094-.137-2.09-.287-3.09-.373-.347-.029-.757.013-1.05.18-.972.555-1.905 1.181-3.01 1.88.203-.929.334-1.74.567-2.52.17-.574.092-.894-.43-1.268C1.12 14.618-.297 11.031.762 7.338 1.743 3.923 4.151 1.85 7.421.771c4.465-1.474 9.48.03 12.196 3.612a8.5 8.5 0 0 1 1.74 4.463zM8.48 7.696c.027-.676-.553-1.284-1.24-1.305a1.257 1.257 0 0 0-1.304 1.225c-.02.71.517 1.28 1.226 1.299a1.278 1.278 0 0 0 1.318-1.22zm6.718-1.305c-.69.013-1.274.607-1.262 1.285a1.267 1.267 0 0 0 1.295 1.245 1.244 1.244 0 0 0 1.245-1.283 1.251 1.251 0 0 0-1.278-1.247z" fill="#fff"/><path d="M27.645 26.477c-.886-.398-1.698-.996-2.563-1.087-.863-.091-1.768.412-2.67.504-2.746.285-5.207-.489-7.235-2.386-3.859-3.608-3.307-9.14 1.156-12.097 3.968-2.628 9.787-1.752 12.584 1.895 2.441 3.181 2.154 7.404-.827 10.077-.862.773-1.172 1.41-.62 2.43.105.188.116.426.175.664zm-10.083-9.87a1.05 1.05 0 0 0 1.05-1.008 1.057 1.057 0 0 0-1.043-1.099 1.066 1.066 0 0 0-1.054 1.092c.02.562.486 1.014 1.047 1.016zm6.5-2.104c-.547-.004-1.011.448-1.034 1.008a1.033 1.033 0 0 0 1.02 1.09 1.022 1.022 0 0 0 1.035-1c.02-.6-.438-1.094-1.02-1.098z" fill="#fff"/></svg><svg width="41" height="37" fill="none" viewBox="-5 -5 41 37" id="icons--wechat-grey-5" y="154" xmlns="http://www.w3.org/2000/svg"><path d="M21.357 8.846c-2.798.148-5.23 1.005-7.206 2.942-1.995 1.958-2.906 4.355-2.658 7.327-1.094-.137-2.09-.287-3.09-.373-.347-.029-.757.013-1.05.18-.972.555-1.905 1.181-3.01 1.88.203-.929.334-1.74.567-2.52.17-.574.092-.894-.43-1.268C1.12 14.618-.297 11.031.762 7.338 1.743 3.923 4.151 1.85 7.421.771c4.465-1.474 9.48.03 12.196 3.612a8.5 8.5 0 0 1 1.74 4.463zM8.48 7.696c.027-.676-.553-1.284-1.24-1.305a1.257 1.257 0 0 0-1.304 1.225c-.02.71.517 1.28 1.226 1.299a1.278 1.278 0 0 0 1.318-1.22zm6.718-1.305c-.69.013-1.274.607-1.262 1.285a1.267 1.267 0 0 0 1.295 1.245 1.244 1.244 0 0 0 1.245-1.283 1.251 1.251 0 0 0-1.278-1.247z" fill="#4D6875"/><path d="M27.644 26.477c-.886-.398-1.698-.996-2.563-1.087-.863-.091-1.768.412-2.67.504-2.746.285-5.207-.489-7.235-2.386-3.859-3.608-3.307-9.14 1.156-12.097C20.3 8.784 26.12 9.66 28.916 13.306c2.441 3.182 2.154 7.404-.827 10.077-.862.774-1.172 1.41-.62 2.43.105.188.116.426.175.664zm-10.083-9.869a1.05 1.05 0 0 0 1.05-1.009 1.057 1.057 0 0 0-1.043-1.099 1.066 1.066 0 0 0-1.054 1.092c.02.562.486 1.015 1.047 1.016zm6.5-2.105c-.547-.004-1.011.449-1.034 1.008a1.033 1.033 0 0 0 1.02 1.09 1.022 1.022 0 0 0 1.035-1c.02-.599-.438-1.094-1.02-1.098z" fill="#4D6875"/></svg><svg width="41" height="37" viewBox="-5 -5 41 37" id="icons--wechat-color-6" y="191" xmlns="http://www.w3.org/2000/svg"><path fill="#2DC100" d="M21.357 8.846c-2.799.148-5.23 1.005-7.207 2.942-1.995 1.958-2.906 4.354-2.658 7.327-1.094-.137-2.09-.287-3.09-.373-.347-.029-.757.013-1.05.18-.972.555-1.905 1.182-3.01 1.881.203-.93.334-1.74.567-2.521.17-.573.092-.893-.43-1.268-3.36-2.396-4.777-5.983-3.718-9.676.982-3.415 3.39-5.488 6.66-6.567 4.465-1.474 9.479.03 12.196 3.612a8.496 8.496 0 0 1 1.74 4.463zM8.48 7.696c.027-.676-.553-1.284-1.24-1.305A1.256 1.256 0 0 0 5.937 7.6v.017c-.02.71.517 1.28 1.226 1.299a1.279 1.279 0 0 0 1.317-1.22zm6.718-1.305c-.69.013-1.274.607-1.262 1.285a1.268 1.268 0 0 0 1.289 1.245h.006a1.244 1.244 0 0 0 1.246-1.242v-.041a1.252 1.252 0 0 0-1.255-1.248l-.024.001z"/><path fill="#2DC100" d="M27.645 26.477c-.887-.397-1.699-.996-2.563-1.086-.863-.092-1.769.412-2.67.504-2.746.285-5.207-.49-7.235-2.387-3.859-3.607-3.307-9.14 1.156-12.097C20.3 8.784 26.12 9.66 28.916 13.306c2.441 3.182 2.154 7.404-.827 10.077-.862.773-1.172 1.41-.62 2.43.105.188.116.425.176.664zm-10.084-9.87a1.051 1.051 0 0 0 1.051-1.008 1.06 1.06 0 0 0-1.015-1.1h-.028a1.066 1.066 0 0 0-1.055 1.078v.014c.02.563.486 1.016 1.047 1.016zm6.5-2.104c-.547-.004-1.011.449-1.033 1.009a1.033 1.033 0 0 0 .975 1.088l.045.002a1.022 1.022 0 0 0 1.035-1c.02-.6-.438-1.095-1.02-1.099h-.002z"/></svg><svg width="39" height="37" fill="none" viewBox="-5 -5 39 37" id="icons--kakao-white-7" y="228" xmlns="http://www.w3.org/2000/svg"><path d="M14.485.209C6.886.209.727 5.233.727 11.431c0 4.007 2.575 7.523 6.449 9.509-.211.751-1.355 4.837-1.4 5.158 0 0-.028.24.123.333.151.092.329.02.329.02.433-.062 5.02-3.395 5.813-3.974.794.116 1.61.176 2.444.176 7.599 0 13.759-5.024 13.759-11.222C28.244 5.233 22.084.21 14.485.21z" fill="#fff"/><path d="M6.878 15.349a.79.79 0 0 1-.794-.784V9.686H4.845a.793.793 0 0 1-.779-.804c0-.443.35-.804.78-.804H8.91c.43 0 .779.361.779.804 0 .444-.35.804-.779.804H7.671v4.879a.79.79 0 0 1-.793.784zm6.96-.01c-.331 0-.584-.14-.66-.363l-.394-1.065h-2.42l-.393 1.065c-.077.223-.33.362-.66.362-.175 0-.347-.038-.505-.113-.219-.105-.43-.392-.188-1.166l1.898-5.17c.134-.393.54-.798 1.057-.81.519.012.925.417 1.06.81l1.897 5.168c.242.777.031 1.064-.187 1.168a1.18 1.18 0 0 1-.505.113zm-1.471-2.882l-.793-2.33-.793 2.33h1.586zm3.44 2.772a.758.758 0 0 1-.76-.753V8.9c0-.453.363-.822.81-.822.447 0 .81.369.81.822v4.824h1.687c.42 0 .76.337.76.752a.758.758 0 0 1-.76.753h-2.546zm4.41.11c-.437 0-.793-.37-.793-.822V8.9c0-.453.356-.822.793-.822.438 0 .794.369.794.822v1.764l2.215-2.29a.606.606 0 0 1 .44-.183.77.77 0 0 1 .546.242.821.821 0 0 1 .234.52.653.653 0 0 1-.175.5l-1.81 1.872 1.955 2.677a.827.827 0 0 1 .152.609.836.836 0 0 1-.308.541.769.769 0 0 1-.832.08.794.794 0 0 1-.28-.24l-1.861-2.552-.276.285v1.792a.837.837 0 0 1-.232.58.782.782 0 0 1-.562.241z" fill="#003657"/></svg><svg width="39" height="37" fill="none" viewBox="-5 -5 39 37" id="icons--kakao-grey-8" y="265" xmlns="http://www.w3.org/2000/svg"><path d="M14.485.209C6.886.209.727 5.233.727 11.431c0 4.007 2.575 7.523 6.449 9.509-.211.751-1.355 4.837-1.4 5.158 0 0-.028.24.123.333.151.092.329.02.329.02.433-.062 5.02-3.395 5.813-3.974.794.116 1.61.176 2.444.176 7.599 0 13.759-5.024 13.759-11.222C28.244 5.233 22.084.21 14.485.21z" fill="#4D6875"/></svg><svg width="39" height="37" viewBox="-5 -5 39 37" id="icons--kakao-color-9" y="302" xmlns="http://www.w3.org/2000/svg"><path fill="#12100E" d="M14.485.209C6.886.209.727 5.233.727 11.431c0 4.006 2.575 7.523 6.449 9.508-.211.752-1.355 4.838-1.4 5.158 0 0-.028.24.123.334.151.092.329.02.329.02.433-.063 5.02-3.395 5.813-3.975.809.118 1.626.178 2.444.176 7.599 0 13.759-5.023 13.759-11.221S22.084.21 14.485.209z"/><path fill="#FFE812" d="M6.757 15.47a.807.807 0 0 1-.811-.801V9.69H4.677a.81.81 0 0 1-.797-.821.81.81 0 0 1 .797-.82h4.159a.81.81 0 0 1 .797.82.808.808 0 0 1-.797.821H7.568v4.979a.807.807 0 0 1-.813.801h.002zm7.121-.01c-.339 0-.598-.143-.676-.372l-.402-1.086h-2.477l-.402 1.086c-.078.228-.338.372-.676.372-.178 0-.354-.041-.516-.118-.224-.107-.44-.399-.193-1.188l1.944-5.278c.135-.4.551-.813 1.08-.827.531.013.947.426 1.083.828l1.941 5.274c.248.792.032 1.087-.192 1.194a1.192 1.192 0 0 1-.514.115zm-1.504-2.942l-.813-2.38-.811 2.378h1.622l.002.002zm3.52 2.829a.778.778 0 0 1-.778-.77V8.886c0-.461.372-.838.829-.838.458 0 .828.375.828.838v4.924H18.5c.429 0 .777.346.777.767 0 .425-.349.77-.777.77h-2.606zm4.512.113a.828.828 0 0 1-.813-.841V8.886c0-.461.364-.838.813-.838.447 0 .812.375.812.838v1.801l2.265-2.338a.625.625 0 0 1 .452-.188.835.835 0 0 1 .797.778.662.662 0 0 1-.18.511l-1.85 1.91 1.998 2.734a.854.854 0 0 1-.158 1.173.784.784 0 0 1-.852.081.805.805 0 0 1-.286-.245L21.5 12.5l-.282.291v1.828a.852.852 0 0 1-.238.593.812.812 0 0 1-.574.248z"/></svg><svg width="30" height="36" fill="none" viewBox="-5 -5 30 36" id="icons--bitcoin-white-10" y="339" xmlns="http://www.w3.org/2000/svg"><path d="M18.618 13.616c-.59-.75-1.48-1.265-2.67-1.545 1.516-.76 2.182-2.05 1.999-3.87-.061-.66-.247-1.231-.557-1.716a3.47 3.47 0 0 0-1.259-1.17 7 7 0 0 0-1.724-.675 13.822 13.822 0 0 0-2.136-.337V.523H9.92v3.675c-.406 0-1.027.01-1.86.03V.523H5.71v3.78c-.336.01-.83.015-1.48.015L.996 4.303v2.46H2.69c.773 0 1.225.34 1.357 1.02v4.304c.102 0 .184.005.245.015h-.245v6.028c-.08.51-.376.765-.884.765H1.469L.996 21.64h3.052c.193 0 .472.002.839.007.366.005.64.007.824.007v3.825h2.35v-3.78c.427.01 1.047.016 1.86.016v3.764h2.35v-3.825a18.58 18.58 0 0 0 2.22-.224 9.159 9.159 0 0 0 1.854-.518c.59-.235 1.083-.528 1.48-.878.396-.35.724-.794.984-1.334.259-.54.424-1.165.495-1.875.133-1.39-.096-2.46-.686-3.21zM8.106 6.926a115.023 115.023 0 0 0 1.427-.023 9.05 9.05 0 0 1 .885.039c.37.03.684.07.938.12.254.05.534.132.839.247.305.115.55.255.732.42.183.165.338.375.465.63.128.255.191.547.191.877 0 .28-.046.535-.137.765-.091.23-.229.423-.412.578-.183.155-.371.29-.565.405-.193.115-.44.207-.74.277-.3.07-.561.125-.785.165-.224.04-.503.068-.839.083-.336.014-.59.025-.763.03-.173.005-.41.005-.71 0l-.526-.008V6.927zm6.416 10.214c-.097.23-.222.43-.374.6-.153.17-.354.32-.603.45s-.49.235-.724.315c-.234.08-.517.15-.847.21a11.287 11.287 0 0 1-1.763.187 20.413 20.413 0 0 1-1.54.015 52.12 52.12 0 0 0-.565-.007v-5.07c.081 0 .323-.004.725-.014.401-.01.73-.015.984-.015s.605.015 1.053.045c.447.03.823.074 1.129.134.305.06.638.153.999.278.36.125.653.277.877.457.224.18.412.41.565.69.153.28.229.6.229.96 0 .28-.049.535-.145.765z" fill="#fff"/></svg><svg width="30" height="36" fill="none" viewBox="-5 -5 30 36" id="icons--bitcoin-grey-11" y="375" xmlns="http://www.w3.org/2000/svg"><path d="M18.618 13.616c-.59-.75-1.48-1.265-2.67-1.545 1.516-.76 2.182-2.05 1.999-3.87-.061-.66-.247-1.231-.557-1.716a3.47 3.47 0 0 0-1.259-1.17 7 7 0 0 0-1.724-.675 13.822 13.822 0 0 0-2.136-.337V.523H9.92v3.675c-.406 0-1.027.01-1.86.03V.523H5.71v3.78c-.336.01-.83.015-1.48.015L.996 4.303v2.46H2.69c.773 0 1.225.34 1.357 1.02v4.304c.102 0 .184.005.245.015h-.245v6.028c-.08.51-.376.765-.884.765H1.469L.996 21.64h3.052c.193 0 .472.002.839.007.366.005.64.007.824.007v3.825h2.35v-3.78c.427.01 1.047.016 1.86.016v3.764h2.35v-3.825a18.58 18.58 0 0 0 2.22-.224 9.159 9.159 0 0 0 1.854-.518c.59-.235 1.083-.528 1.48-.878.396-.35.724-.794.984-1.334.259-.54.424-1.165.495-1.875.133-1.39-.096-2.46-.686-3.21zM8.106 6.926a115.023 115.023 0 0 0 1.427-.023 9.05 9.05 0 0 1 .885.039c.37.03.684.07.938.12.254.05.534.132.839.247.305.115.55.255.732.42.183.165.338.375.465.63.128.255.191.547.191.877 0 .28-.046.535-.137.765-.091.23-.229.423-.412.578-.183.155-.371.29-.565.405-.193.115-.44.207-.74.277-.3.07-.561.125-.785.165-.224.04-.503.068-.839.083-.336.014-.59.025-.763.03-.173.005-.41.005-.71 0l-.526-.008V6.927zm6.416 10.214c-.097.23-.222.43-.374.6-.153.17-.354.32-.603.45s-.49.235-.724.315c-.234.08-.517.15-.847.21a11.287 11.287 0 0 1-1.763.187 20.413 20.413 0 0 1-1.54.015 52.12 52.12 0 0 0-.565-.007v-5.07c.081 0 .323-.004.725-.014.401-.01.73-.015.984-.015s.605.015 1.053.045c.447.03.823.074 1.129.134.305.06.638.153.999.278.36.125.653.277.877.457.224.18.412.41.565.69.153.28.229.6.229.96 0 .28-.049.535-.145.765z" fill="#4D6875"/></svg><svg width="30" height="36" viewBox="-5 -5 30 36" id="icons--bitcoin-color-12" y="411" xmlns="http://www.w3.org/2000/svg"><path fill="#F7931A" d="M18.618 13.616c-.591-.75-1.479-1.265-2.67-1.545 1.516-.76 2.182-2.05 1.999-3.87-.061-.66-.247-1.231-.557-1.716a3.468 3.468 0 0 0-1.26-1.17 7.023 7.023 0 0 0-1.724-.675 13.78 13.78 0 0 0-2.136-.337V.523H9.92v3.675c-.406 0-1.027.01-1.86.03V.523H5.71v3.78c-.336.01-.83.015-1.48.015L.996 4.303v2.46H2.69c.773 0 1.225.34 1.357 1.02v4.304c.102 0 .184.005.245.015h-.245v6.028c-.08.511-.376.765-.884.765H1.469l-.473 2.746h3.052c.193 0 .472.002.839.006.366.006.64.008.824.008v3.824h2.35V21.7c.427.01 1.047.016 1.86.016v3.764h2.351v-3.824c.743-.03 1.484-.105 2.22-.225a9.118 9.118 0 0 0 1.854-.518 5 5 0 0 0 1.479-.878c.396-.351.724-.794.983-1.334s.424-1.165.496-1.875c.134-1.39-.096-2.461-.686-3.21zM8.106 6.926c.476-.005.952-.013 1.427-.023.295-.001.591.012.885.039.37.03.684.07.938.12s.535.132.84.247c.305.115.55.255.731.42.183.165.339.375.466.63s.19.547.19.877c0 .28-.046.535-.138.765a1.44 1.44 0 0 1-.411.578c-.183.155-.371.29-.565.405a2.6 2.6 0 0 1-.74.277c-.299.07-.561.125-.785.165-.223.04-.502.068-.838.083-.336.014-.59.025-.763.03-.173.005-.41.005-.71 0l-.526-.008V6.926h-.001zm6.415 10.215c-.097.229-.222.43-.373.6-.153.17-.354.32-.604.449-.249.131-.49.235-.725.315a6.03 6.03 0 0 1-.846.21c-.582.109-1.172.172-1.764.188a21.37 21.37 0 0 1-1.54.015c-.188-.003-.376-.006-.565-.007v-5.07c.081 0 .323-.004.725-.014.401-.01.73-.016.984-.016s.605.016 1.053.045a9.22 9.22 0 0 1 1.129.135c.305.06.638.152.999.277.359.125.652.277.877.457s.412.41.564.69c.153.28.229.601.229.96.003.279-.046.535-.143.766z"/></svg><svg width="26" height="40" fill="none" viewBox="-5 -5 26 40" id="icons--fb-white-13" y="447" xmlns="http://www.w3.org/2000/svg"><path d="M14.675.215L11.233.209C7.367.209 4.868 3 4.868 7.32V10.6h-3.46c-.299 0-.54.264-.54.59v4.75c0 .326.242.59.54.59h3.46v11.986c0 .326.243.59.542.59h4.514c.3 0 .541-.264.541-.59V16.528h4.046c.299 0 .541-.263.541-.589l.002-4.75a.618.618 0 0 0-.159-.417.52.52 0 0 0-.383-.173h-4.047v-2.78c0-1.335.293-2.014 1.89-2.014h2.32c.298 0 .54-.264.54-.59V.805c0-.326-.242-.59-.54-.59z" fill="#fff"/></svg><svg width="26" height="40" fill="none" viewBox="-5 -5 26 40" id="icons--fb-grey-14" y="487" xmlns="http://www.w3.org/2000/svg"><path d="M14.675.215L11.233.209C7.367.209 4.868 3 4.868 7.32V10.6h-3.46c-.299 0-.54.264-.54.59v4.75c0 .326.242.59.54.59h3.46v11.986c0 .326.243.59.542.59h4.514c.3 0 .541-.264.541-.59V16.528h4.046c.299 0 .541-.263.541-.589l.002-4.75a.618.618 0 0 0-.159-.417.52.52 0 0 0-.383-.173h-4.047v-2.78c0-1.335.293-2.014 1.89-2.014h2.32c.298 0 .54-.264.54-.59V.805c0-.326-.242-.59-.54-.59z" fill="#4D6875"/></svg><svg width="26" height="40" viewBox="-5 -5 26 40" id="icons--fb-color-15" y="527" xmlns="http://www.w3.org/2000/svg"><path fill="#3C5A99" d="M14.675.215L11.233.209C7.367.209 4.868 3 4.868 7.32v3.28h-3.46c-.299 0-.54.264-.54.59v4.75c0 .326.242.59.54.59h3.46v11.986c0 .326.243.59.542.59h4.514c.301 0 .541-.264.541-.59V16.527h4.047c.299 0 .54-.262.54-.588l.003-4.75a.623.623 0 0 0-.16-.417.519.519 0 0 0-.383-.173h-4.047v-2.78c0-1.335.293-2.014 1.891-2.014h2.319c.298 0 .54-.264.54-.59V.805c0-.326-.242-.59-.54-.59z"/></svg><svg width="39" height="35" fill="none" viewBox="-5 -5 39 35" id="icons--twitter-white-16" y="567" xmlns="http://www.w3.org/2000/svg"><path d="M28.09 3.633c-1.008.475-2.09.797-3.226.94 1.16-.738 2.049-1.91 2.47-3.3a10.933 10.933 0 0 1-3.57 1.449C22.737 1.56 21.28.836 19.661.836c-3.103 0-5.619 2.673-5.619 5.969 0 .467.05.924.146 1.36-4.67-.249-8.81-2.626-11.581-6.238a6.212 6.212 0 0 0-.76 3.001c0 2.072.992 3.9 2.499 4.969a5.37 5.37 0 0 1-2.546-.75v.075c0 2.892 1.938 5.305 4.507 5.855-.47.134-.967.209-1.48.209-.363 0-.714-.038-1.058-.111.715 2.373 2.79 4.1 5.248 4.147-1.922 1.6-4.346 2.551-6.979 2.551-.453 0-.9-.029-1.34-.082 2.487 1.697 5.44 2.687 8.613 2.687C19.65 24.478 25.3 15.38 25.3 7.49l-.02-.773a11.63 11.63 0 0 0 2.811-3.085z" fill="#fff"/></svg><svg width="39" height="35" fill="none" viewBox="-5 -5 39 35" id="icons--twitter-grey-17" y="602" xmlns="http://www.w3.org/2000/svg"><path d="M28.09 3.633c-1.008.475-2.09.797-3.226.94 1.16-.738 2.049-1.91 2.47-3.3a10.933 10.933 0 0 1-3.57 1.449C22.737 1.56 21.28.836 19.661.836c-3.103 0-5.619 2.673-5.619 5.969 0 .467.05.924.146 1.36-4.67-.249-8.81-2.626-11.581-6.238a6.212 6.212 0 0 0-.76 3.001c0 2.072.992 3.9 2.499 4.969a5.37 5.37 0 0 1-2.546-.75v.075c0 2.892 1.938 5.305 4.507 5.855-.47.134-.967.209-1.48.209-.363 0-.714-.038-1.058-.111.715 2.373 2.79 4.1 5.248 4.147-1.922 1.6-4.346 2.551-6.979 2.551-.453 0-.9-.029-1.34-.082 2.487 1.697 5.44 2.687 8.613 2.687C19.65 24.478 25.3 15.38 25.3 7.49l-.02-.773a11.63 11.63 0 0 0 2.811-3.085z" fill="#4D6875"/></svg><svg width="39" height="35" viewBox="-5 -5 39 35" id="icons--twitter-color-18" y="637" xmlns="http://www.w3.org/2000/svg"><path fill="#55ACEE" d="M28.09 3.633c-1.008.475-2.09.797-3.227.94 1.16-.738 2.05-1.91 2.471-3.3a10.953 10.953 0 0 1-3.57 1.449C22.737 1.56 21.28.836 19.661.836c-3.103 0-5.619 2.673-5.619 5.969 0 .467.05.924.146 1.36-4.67-.249-8.81-2.626-11.581-6.238a6.216 6.216 0 0 0-.76 3.001c0 2.072.992 3.9 2.499 4.969a5.372 5.372 0 0 1-2.546-.75v.075c0 2.892 1.938 5.305 4.507 5.855-.47.134-.967.209-1.48.209-.363 0-.714-.038-1.058-.111.715 2.373 2.79 4.101 5.248 4.147-1.922 1.6-4.346 2.551-6.979 2.551-.453 0-.9-.029-1.34-.082 2.487 1.697 5.44 2.688 8.613 2.688C19.65 24.479 25.3 15.38 25.3 7.49l-.021-.773a11.592 11.592 0 0 0 2.811-3.084z"/></svg><svg width="43" height="35" fill="none" viewBox="-5 -5 43 35" id="icons--youtube-white-19" y="672" xmlns="http://www.w3.org/2000/svg"><path d="M31.384 2.865c-1.177-1.441-3.35-2.03-7.5-2.03H8.818c-4.245 0-6.455.627-7.628 2.162C.047 4.493.047 6.697.047 9.749v5.816c0 5.911 1.356 8.913 8.771 8.913h15.066c3.6 0 5.593-.52 6.884-1.791 1.323-1.305 1.887-3.435 1.887-7.122V9.749c0-3.218-.088-5.436-1.27-6.884zM20.982 13.46l-6.842 3.683a1.027 1.027 0 0 1-1.032-.033 1.091 1.091 0 0 1-.507-.927V8.84c0-.379.192-.73.506-.927.314-.196.705-.21 1.031-.035l6.841 3.66c.348.186.567.556.567.96 0 .404-.217.775-.564.962z" fill="#fff"/></svg><svg width="43" height="35" fill="none" viewBox="-5 -5 43 35" id="icons--youtube-grey-20" y="707" xmlns="http://www.w3.org/2000/svg"><path d="M31.384 2.865c-1.177-1.441-3.35-2.03-7.5-2.03H8.818c-4.245 0-6.455.627-7.628 2.162C.047 4.493.047 6.697.047 9.749v5.816c0 5.911 1.356 8.913 8.771 8.913h15.066c3.6 0 5.593-.52 6.884-1.791 1.323-1.305 1.887-3.435 1.887-7.122V9.749c0-3.218-.088-5.436-1.27-6.884zM20.982 13.46l-6.842 3.683a1.027 1.027 0 0 1-1.032-.033 1.091 1.091 0 0 1-.507-.927V8.84c0-.379.192-.73.506-.927.314-.196.705-.21 1.031-.035l6.841 3.66c.348.186.567.556.567.96 0 .404-.217.775-.564.962z" fill="#4D6875"/></svg><svg width="43" height="35" viewBox="-5 -5 43 35" id="icons--youtube-color-21" y="742" xmlns="http://www.w3.org/2000/svg"><path fill="red" d="M31.384 2.865c-1.177-1.441-3.35-2.03-7.5-2.03H8.818c-4.245 0-6.455.627-7.628 2.162C.047 4.493.047 6.697.047 9.749v5.815c0 5.912 1.356 8.914 8.771 8.914h15.066c3.601 0 5.593-.521 6.884-1.791 1.323-1.306 1.887-3.436 1.887-7.123V9.749c-.001-3.218-.089-5.436-1.271-6.884zM20.982 13.46l-6.842 3.683a1.025 1.025 0 0 1-1.032-.033 1.09 1.09 0 0 1-.507-.926V8.84c0-.379.192-.73.506-.927.314-.196.705-.21 1.031-.035l6.84 3.66c.349.186.567.556.567.96s-.216.775-.563.962z"/></svg><svg width="43" height="36" fill="none" viewBox="-5 -5 43 36" id="icons--medium-white-22" y="777" xmlns="http://www.w3.org/2000/svg"><path d="M4.626 5.613a1.22 1.22 0 0 0-.394-1.027L1.309 1.051V.522h9.075L17.4 15.971 23.566.522h8.652v.529L29.72 3.457a.735.735 0 0 0-.277.704v17.678a.735.735 0 0 0 .277.704l2.44 2.407v.528H19.885v-.528l2.528-2.465c.248-.25.248-.323.248-.704V7.49L15.63 25.42h-.95L6.498 7.491v12.016a1.662 1.662 0 0 0 .453 1.379l3.288 4.005v.528H.914v-.528l3.288-4.005c.352-.366.51-.878.424-1.38V5.614z" fill="#fff"/></svg><svg width="43" height="36" fill="none" viewBox="-5 -5 43 36" id="icons--medium-grey-23" y="813" xmlns="http://www.w3.org/2000/svg"><path d="M4.626 5.613a1.22 1.22 0 0 0-.394-1.027L1.309 1.051V.522h9.075L17.4 15.971 23.566.522h8.652v.529L29.72 3.457a.735.735 0 0 0-.277.704v17.678a.735.735 0 0 0 .277.704l2.44 2.407v.528H19.885v-.528l2.528-2.465c.248-.25.248-.323.248-.704V7.49L15.63 25.42h-.95L6.498 7.491v12.016a1.662 1.662 0 0 0 .453 1.379l3.288 4.005v.528H.914v-.528l3.288-4.005c.352-.366.51-.878.424-1.38V5.614z" fill="#4D6875"/></svg><svg width="43" height="36" viewBox="-5 -5 43 36" id="icons--medium-color-24" y="849" xmlns="http://www.w3.org/2000/svg"><path fill="#12100E" d="M4.626 5.613a1.22 1.22 0 0 0-.394-1.027L1.309 1.051V.522h9.075L17.4 15.971 23.566.522h8.651v.529L29.72 3.457a.733.733 0 0 0-.277.704v17.678a.735.735 0 0 0 .277.704l2.439 2.407v.528H19.885v-.528l2.528-2.466c.248-.25.248-.322.248-.703V7.49L15.63 25.42h-.95L6.498 7.491v12.016a1.667 1.667 0 0 0 .453 1.38l3.288 4.004v.528H.914v-.528l3.288-4.004a1.6 1.6 0 0 0 .424-1.381V5.613z"/></svg><svg width="38" height="38" fill="none" viewBox="-5 -5 38 38" id="icons--linked-white-25" y="885" xmlns="http://www.w3.org/2000/svg"><path d="M6.812 9.072h-5.5c-.243 0-.44.2-.44.445v17.828c0 .246.197.446.44.446h5.5c.244 0 .442-.2.442-.446V9.517a.444.444 0 0 0-.442-.445zM4.062.209c-2 0-3.628 1.64-3.628 3.658s1.627 3.66 3.628 3.66c2 0 3.626-1.642 3.626-3.66C7.688 1.85 6.06.209 4.062.209zM20.801 8.628c-2.208 0-3.84.958-4.831 2.047V9.517a.444.444 0 0 0-.442-.446h-5.266c-.244 0-.442.2-.442.446v17.827c0 .247.198.446.442.446h5.487c.244 0 .442-.2.442-.446v-8.82c0-2.972.8-4.13 2.853-4.13 2.236 0 2.414 1.856 2.414 4.283v8.668c0 .246.197.445.441.445h5.49c.243 0 .441-.2.441-.445v-9.78c0-4.419-.835-8.937-7.029-8.937z" fill="#fff"/></svg><svg width="38" height="38" fill="none" viewBox="-5 -5 38 38" id="icons--linked-grey-26" y="923" xmlns="http://www.w3.org/2000/svg"><path d="M6.812 9.072h-5.5c-.243 0-.44.2-.44.446v17.827c0 .246.197.446.44.446h5.5c.244 0 .442-.2.442-.446V9.518a.444.444 0 0 0-.442-.446zM4.062.209c-2 0-3.628 1.64-3.628 3.658s1.627 3.66 3.628 3.66c2 0 3.626-1.642 3.626-3.66C7.688 1.85 6.06.209 4.062.209zM20.801 8.628c-2.208 0-3.84.958-4.831 2.047V9.517a.444.444 0 0 0-.442-.446h-5.266c-.244 0-.442.2-.442.446v17.827c0 .247.198.446.442.446h5.487c.244 0 .442-.2.442-.446v-8.82c0-2.972.8-4.13 2.853-4.13 2.236 0 2.414 1.856 2.414 4.283v8.668c0 .246.197.445.441.445h5.49c.243 0 .441-.2.441-.445v-9.78c0-4.419-.835-8.937-7.029-8.937z" fill="#4D6875"/></svg><svg width="38" height="38" viewBox="-5 -5 38 38" id="icons--linked-color-27" y="961" xmlns="http://www.w3.org/2000/svg"><path fill="#069" d="M6.812 9.072h-5.5c-.243 0-.44.2-.44.446v17.828c0 .245.197.445.44.445h5.5c.244 0 .442-.2.442-.445V9.518a.444.444 0 0 0-.442-.446zM4.062.209c-2 0-3.628 1.64-3.628 3.658s1.627 3.66 3.628 3.66c2 0 3.626-1.642 3.626-3.66C7.688 1.85 6.06.209 4.062.209zm16.739 8.419c-2.208 0-3.84.958-4.83 2.047V9.517a.445.445 0 0 0-.443-.446h-5.265c-.244 0-.442.2-.442.446v17.827c0 .247.198.446.442.446h5.487c.244 0 .442-.2.442-.446v-8.82c0-2.971.8-4.129 2.853-4.129 2.235 0 2.414 1.856 2.414 4.284v8.668c0 .245.196.444.44.444h5.49c.243 0 .441-.2.441-.444v-9.781c0-4.42-.835-8.938-7.029-8.938z"/></svg><svg width="46" height="39" fill="none" viewBox="-5 -5 46 39" id="icons--reddit-white-28" y="999" xmlns="http://www.w3.org/2000/svg"><path d="M35.948 13.567c0-2.34-1.966-4.243-4.383-4.243-.967 0-1.885.305-2.634.86-2.446-1.645-5.65-2.625-9.058-2.874l1.839-4.175 5.35 1.21c.17 1.601 1.555 2.857 3.254 2.857 1.812 0 3.287-1.428 3.287-3.182 0-1.755-1.475-3.183-3.287-3.183A3.308 3.308 0 0 0 27.57 2.28L21.317.865a1.105 1.105 0 0 0-1.26.617l-2.542 5.771c-3.68.123-7.186 1.127-9.833 2.875a4.39 4.39 0 0 0-2.569-.804C2.696 9.324.73 11.227.73 13.567c0 1.551.875 2.954 2.216 3.673a6.116 6.116 0 0 0-.024.57c0 5.85 6.881 10.609 15.34 10.609 8.457 0 15.34-4.759 15.34-10.608 0-.166-.006-.33-.017-.493 1.43-.704 2.363-2.14 2.363-3.75zM30.316 2.96c.602 0 1.095.475 1.095 1.06 0 .586-.493 1.061-1.095 1.061-.603 0-1.096-.475-1.096-1.06 0-.586.493-1.061 1.096-1.061zm-19.724 13.79c0-1.168.984-2.121 2.192-2.121 1.207 0 2.191.953 2.191 2.122 0 1.17-.984 2.121-2.191 2.121-1.208 0-2.192-.95-2.192-2.121zm12.73 7.038a8.82 8.82 0 0 1-5.06 1.59 8.82 8.82 0 0 1-5.06-1.59 1.038 1.038 0 0 1-.245-1.48 1.122 1.122 0 0 1 1.53-.238 6.599 6.599 0 0 0 7.551 0 1.118 1.118 0 0 1 1.53.237 1.04 1.04 0 0 1-.245 1.481zm.42-4.916c-1.21 0-2.192-.95-2.192-2.121 0-1.17.981-2.122 2.191-2.122s2.192.953 2.192 2.122c0 1.17-.982 2.121-2.192 2.121z" fill="#fff"/></svg><svg width="46" height="39" fill="none" viewBox="-5 -5 46 39" id="icons--reddit-grey-29" y="1038" xmlns="http://www.w3.org/2000/svg"><path d="M35.948 13.567c0-2.34-1.966-4.243-4.383-4.243-.967 0-1.885.305-2.634.86-2.446-1.645-5.65-2.625-9.058-2.874l1.839-4.175 5.35 1.21c.17 1.601 1.555 2.857 3.254 2.857 1.812 0 3.287-1.428 3.287-3.182 0-1.755-1.475-3.183-3.287-3.183A3.308 3.308 0 0 0 27.57 2.28L21.317.865a1.105 1.105 0 0 0-1.26.617l-2.542 5.771c-3.68.123-7.186 1.127-9.833 2.875a4.39 4.39 0 0 0-2.569-.804C2.696 9.324.73 11.227.73 13.567c0 1.551.875 2.954 2.216 3.673a6.116 6.116 0 0 0-.024.57c0 5.85 6.881 10.609 15.34 10.609 8.457 0 15.34-4.759 15.34-10.608 0-.166-.006-.33-.017-.493 1.43-.704 2.363-2.14 2.363-3.75zM30.316 2.96c.602 0 1.095.475 1.095 1.06 0 .586-.493 1.061-1.095 1.061-.603 0-1.096-.475-1.096-1.06 0-.586.493-1.061 1.096-1.061zm-19.724 13.79c0-1.168.984-2.121 2.192-2.121 1.207 0 2.191.953 2.191 2.122 0 1.17-.984 2.121-2.191 2.121-1.208 0-2.192-.95-2.192-2.121zm12.73 7.038a8.82 8.82 0 0 1-5.06 1.59 8.82 8.82 0 0 1-5.06-1.59 1.038 1.038 0 0 1-.245-1.48 1.122 1.122 0 0 1 1.53-.238 6.599 6.599 0 0 0 7.551 0 1.118 1.118 0 0 1 1.53.237 1.04 1.04 0 0 1-.245 1.481zm.42-4.916c-1.21 0-2.192-.95-2.192-2.121 0-1.17.981-2.122 2.191-2.122s2.192.953 2.192 2.122c0 1.17-.982 2.121-2.192 2.121z" fill="#4D6875"/></svg><svg width="46" height="39" viewBox="-5 -5 46 39" id="icons--reddit-color-30" y="1077" xmlns="http://www.w3.org/2000/svg"><path fill="#FF4500" d="M35.948 13.567c0-2.34-1.966-4.243-4.384-4.243a4.413 4.413 0 0 0-2.633.86c-2.447-1.645-5.65-2.625-9.059-2.874l1.839-4.175 5.351 1.21c.17 1.601 1.555 2.857 3.254 2.857 1.812 0 3.287-1.428 3.287-3.182 0-1.755-1.476-3.183-3.287-3.183A3.308 3.308 0 0 0 27.57 2.28L21.316.865a1.106 1.106 0 0 0-1.26.617l-2.542 5.771c-3.68.123-7.186 1.127-9.833 2.875a4.391 4.391 0 0 0-2.569-.804c-2.417 0-4.383 1.903-4.383 4.243 0 1.551.875 2.955 2.216 3.673a6.008 6.008 0 0 0-.024.57c0 5.85 6.881 10.608 15.34 10.608 8.457 0 15.339-4.759 15.339-10.608 0-.166-.006-.33-.017-.492 1.433-.705 2.365-2.14 2.365-3.751zM30.316 2.96c.602 0 1.095.475 1.095 1.06 0 .586-.493 1.061-1.095 1.061-.604 0-1.096-.475-1.096-1.06.001-.586.493-1.061 1.096-1.061zM10.592 16.75c0-1.168.984-2.121 2.192-2.121 1.207 0 2.191.953 2.191 2.122 0 1.17-.984 2.121-2.191 2.121-1.208 0-2.192-.95-2.192-2.122zm12.73 7.038a8.823 8.823 0 0 1-5.06 1.59 8.82 8.82 0 0 1-5.06-1.59 1.037 1.037 0 0 1-.272-1.442l.027-.037a1.12 1.12 0 0 1 1.53-.238 6.6 6.6 0 0 0 7.551 0 1.118 1.118 0 0 1 1.53.236 1.04 1.04 0 0 1-.21 1.456l-.036.025zm.42-4.916c-1.21 0-2.192-.95-2.192-2.121 0-1.17.981-2.122 2.191-2.122s2.192.953 2.192 2.122c.001 1.17-.982 2.121-2.191 2.121z"/></svg><svg width="40" height="39" fill="none" viewBox="-5 -5 40 39" id="icons--github-white-31" y="1116" xmlns="http://www.w3.org/2000/svg"><path fill-rule="evenodd" clip-rule="evenodd" d="M15.042.836C7.144.836.738 7.166.738 14.968c0 6.243 4.125 11.531 9.741 13.439.702.087.965-.347.965-.694v-2.427c-3.949.867-4.826-1.908-4.826-1.908-.614-1.647-1.58-2.08-1.58-2.08-1.316-.868.088-.868.088-.868 1.404.087 2.194 1.474 2.194 1.474 1.316 2.168 3.334 1.56 4.124 1.214.088-.954.527-1.56.878-1.907-3.16-.347-6.494-1.561-6.494-7.023 0-1.56.527-2.775 1.492-3.815-.088-.26-.614-1.734.175-3.641 0 0 1.229-.347 3.95 1.474 1.14-.347 2.369-.434 3.597-.434 1.229 0 2.457.173 3.598.434 2.72-1.821 3.949-1.474 3.949-1.474.79 1.907.263 3.38.175 3.728a5.57 5.57 0 0 1 1.492 3.815c0 5.462-3.334 6.589-6.493 6.936.526.433.965 1.3.965 2.6v3.902c0 .347.263.78.965.694 5.704-1.908 9.74-7.196 9.74-13.439C29.347 7.165 22.94.836 15.044.836z" fill="#fff"/></svg><svg width="40" height="39" fill="none" viewBox="-5 -5 40 39" id="icons--github-grey-32" y="1155" xmlns="http://www.w3.org/2000/svg"><path fill-rule="evenodd" clip-rule="evenodd" d="M15.042.836C7.144.836.738 7.166.738 14.968c0 6.243 4.125 11.531 9.741 13.439.702.087.965-.347.965-.694v-2.427c-3.949.867-4.826-1.908-4.826-1.908-.614-1.647-1.58-2.08-1.58-2.08-1.316-.868.088-.868.088-.868 1.404.087 2.194 1.474 2.194 1.474 1.316 2.168 3.334 1.56 4.124 1.214.088-.954.527-1.56.878-1.907-3.16-.347-6.494-1.561-6.494-7.023 0-1.56.527-2.775 1.492-3.815-.088-.26-.614-1.734.175-3.641 0 0 1.229-.347 3.95 1.474 1.14-.347 2.369-.434 3.597-.434 1.229 0 2.457.173 3.598.434 2.72-1.821 3.949-1.474 3.949-1.474.79 1.907.263 3.38.175 3.728a5.57 5.57 0 0 1 1.492 3.815c0 5.462-3.334 6.589-6.493 6.936.526.433.965 1.3.965 2.6v3.902c0 .347.263.78.965.694 5.704-1.908 9.74-7.196 9.74-13.439C29.347 7.165 22.94.836 15.044.836z" fill="#4D6875"/></svg><svg width="40" height="39" viewBox="-5 -5 40 39" id="icons--github-color-33" y="1194" xmlns="http://www.w3.org/2000/svg"><path fill="#003657" d="M15.042.836C7.144.836.738 7.166.738 14.968c0 6.243 4.125 11.531 9.741 13.438.702.088.965-.346.965-.693v-2.427c-3.949.866-4.826-1.908-4.826-1.908-.614-1.647-1.58-2.08-1.58-2.08-1.316-.868.088-.868.088-.868 1.404.088 2.194 1.475 2.194 1.475 1.316 2.168 3.334 1.56 4.124 1.214.088-.954.527-1.56.878-1.907-3.16-.348-6.494-1.561-6.494-7.023 0-1.56.527-2.775 1.492-3.815-.088-.26-.614-1.734.175-3.641 0 0 1.229-.347 3.95 1.474 1.14-.347 2.369-.434 3.597-.434 1.229 0 2.457.173 3.599.434 2.719-1.821 3.948-1.474 3.948-1.474.79 1.907.263 3.38.175 3.728a5.562 5.562 0 0 1 1.492 3.815c0 5.461-3.334 6.588-6.492 6.936.525.434.965 1.301.965 2.6v3.902c0 .348.263.78.965.693 5.703-1.907 9.74-7.195 9.74-13.438C29.348 7.166 22.94.837 15.044.837h-.002z"/></svg></svg>